<?xml version="1.0" encoding="UTF-8"?><!DOCTYPE svg PUBLIC "-//W3C//DTD SVG 1.1//EN" "http://www.w3.org/Graphics/SVG/1.1/DTD/svg11.dtd"><svg xmlns="http://www.w3.org/2000/svg" width="668px" height="694px" style="shape-rendering:geometricPrecision;text-rendering:geometricPrecision;image-rendering:optimizeQuality;fill-rule:evenodd;clip-rule:evenodd"><path style="opacity:0.247" fill="#3687ff" d="m146 54-2 2 2-2Z"/><path style="opacity:1" fill="#1a78ff" d="M146 54a805 805 0 0 1 116 10 761 761 0 0 1 38 10 1773 1773 0 0 1 104 0c0 1 0 2 2 2h10c0 1 0 2 2 2h8c0 1 0 2 2 2h6c0 1 0 2 2 2l18 4c0 1 0 2 2 2 3 0 6 0 10 2 0 1 0 2 2 2a217 217 0 0 1 66 36c7 4 13 9 20 16 0 1 0 2 2 2l13 12 11 14c0 1 0 2 2 2 1 2 2 4 5 6v4c-8-5-17-9-25-12 0-2-1-2-2-2l-18-6c0-2-1-2-2-2h-4c0-2-1-2-2-2h-4c0-2-1-2-2-2l-28-6c0-2-1-2-2-2h-8c0-2-1-2-2-2h-10c0-2-1-2-2-2a947 947 0 0 0-76 0c-6-1-11 0-16 1a1915 1915 0 0 0-40 9l-18 4c-2 0-2 0-2 2l-14 4c-2 0-2 0-2 2l-12 4c-2 0-2 0-2 2-7 2-13 4-18 8-2 0-2 0-2 2h-2c-2 0-2 0-2 2a333 333 0 0 0-108 96l-2 4c-2 0-2 0-2 2l-2 4c-2 0-2 0-2 2l-2 4c-2 0-2 0-2 2l-4 8c-2 0-2 0-2 2a395 395 0 0 0-18 36l-2 8c-2 0-2 0-2 2-5 11-8 23-10 36-2 0-2 0-2 2v6c-2 0-2 0-2 2v8c-2 0-2 0-2 2-2 7-2 15-2 24-2 0-2 0-2 2l-1 64c-12-20-20-41-25-62 0-2-1-2-2-2l-2-14c0-2-1-2-2-2a502 502 0 0 1-4-108l2-2a371 371 0 0 1 6-38l2-2c1-9 4-17 7-24a12696 12696 0 0 0 11-24v-2l2-2 6-12 2-2c3-8 7-14 12-20l2-2 2-4 2-2 2-20c0-2-1-2-2-2-4-8-10-14-16-18 0-2-1-2-2-2-9-6-19-10-28-12 0-2-1-2-2-2l-26-7-9-5c-2-6-1-11 2-16 11-13 24-22 41-26l2-2h4l2-2 12-2 2-2c13-3 26-4 40-4l2-2Z"/><path style="opacity:0.247" fill="#3688ff" d="m226 58 2 2c-2 0-2-1-2-2Z"/><path style="opacity:0.247" fill="#3686ff" d="m104 60-2 2 2-2Z"/><path style="opacity:0.247" fill="#3687ff" d="m90 64-2 2 2-2ZM262 64l2 2c-2 0-2-1-2-2ZM84 66l-2 2 2-2ZM298 72l2 2c-2 0-2-1-2-2Z"/><path style="opacity:0.247" fill="#3686ff" d="m404 74 2 2c-2 0-2-1-2-2Z"/><path style="opacity:0.31" fill="#3587ff" d="m416 76 2 2c-2 0-2-1-2-2ZM426 78l2 2c-2 0-2-1-2-2Z"/><path style="opacity:1" fill="#2780ff" d="M434 80c1 0 2 0 2 2 0-2-1-2-2-2Z"/><path style="opacity:1" fill="#2880ff" d="M454 86c1 0 2 0 2 2 0-2-1-2-2-2Z"/><path style="opacity:0.247" fill="#3687ff" d="m466 90 2 2c-2 0-2-1-2-2Z"/><path style="opacity:0.247" fill="#3688ff" d="m504 108 2 2c-2 0-2-1-2-2ZM74 122c1 0 2 0 2 2l-2-2Z"/><path style="opacity:0.31" fill="#3587ff" d="m532 126 2 2c-2 0-2-1-2-2Z"/><path style="opacity:1" fill="#2780ff" d="M104 136c1 0 2 0 2 2-2 0-2-1-2-2Z"/><path style="opacity:0.247" fill="#3687ff" d="m402 144-2 2c0-2 0-2 2-2ZM554 144l2 2c-2 0-2-1-2-2Z"/><path style="opacity:0.247" fill="#3688ff" d="M476 146c1 0 2 0 2 2l-2-2Z"/><path style="opacity:0.184" fill="#3787ff" d="M488 148c1 0 2 0 2 2l-2-2Z"/><path style="opacity:0.247" fill="#3688ff" d="M498 150c1 0 2 0 2 2l-2-2Z"/><path style="opacity:0.31" fill="#3587ff" d="m346 154-2 2c0-2 0-2 2-2Z"/><path style="opacity:1" fill="#2880ff" d="M122 156c1 0 2 0 2 2-2 0-2-1-2-2Z"/><path style="opacity:0.247" fill="#3687ff" d="M528 158c1 0 2 0 2 2l-2-2Z"/><path style="opacity:0.31" fill="#3587ff" d="m326 160-2 2c0-2 0-2 2-2Z"/><path style="opacity:0.31" fill="#3586ff" d="M534 160c1 0 2 0 2 2l-2-2Z"/><path style="opacity:0.247" fill="#3687ff" d="M540 162c1 0 2 0 2 2l-2-2Z"/><path style="opacity:0.247" fill="#3686ff" d="m310 166-2 2c0-2 0-2 2-2Z"/><path style="opacity:0.247" fill="#3687ff" d="M560 170c1 0 2 0 2 2l-2-2ZM296 172l-2 2c0-2 0-2 2-2Z"/><path style="opacity:0.184" fill="#3786ff" d="m580 172 2 2c-2 0-2-1-2-2Z"/><path style="opacity:0.247" fill="#3687ff" d="m122 178-2 2 2-2ZM276 182l-2 2c0-2 0-2 2-2Z"/><path style="opacity:0.184" fill="#3787ff" d="m118 184-2 2 2-2Z"/><path style="opacity:0.247" fill="#3687ff" d="m272 184-2 2c0-2 0-2 2-2Z"/><path style="opacity:1" fill="#000462" d="M404 638c-2 0-2 0-2 2a626 626 0 0 1-102-2c-62-9-114-35-157-78-4-9-6-17-7-25-5-48-1-95 14-140 8-21 18-40 31-57-2 32 0 64 7 96a155 155 0 0 0 132 117c41 6 80-1 118-20 37-24 61-57 73-99 6-25 9-50 9-75 1-33-4-64-15-93-13-32-34-57-63-75 51-2 99 10 144 36 10 7 21 15 31 25a300 300 0 0 1-71 325c-34 27-72 47-113 58l-29 5Z"/><path style="opacity:1" fill="#2780ff" d="m104 206-2 2c0-2 0-2 2-2Z"/><path style="opacity:0.184" fill="#3786ff" d="m96 220-2 2 2-2Z"/><path style="opacity:0.247" fill="#3687ff" d="m94 224-2 2 2-2Z"/><path style="opacity:1" fill="#2880ff" d="m200 238-2 2c0-2 0-2 2-2Z"/><path style="opacity:1" fill="#2780ff" d="m196 242-2 2c0-2 0-2 2-2Z"/><path style="opacity:0.31" fill="#3587ff" d="m76 272-2 2 2-2Z"/><path style="opacity:1" fill="#2780ff" d="m164 280-2 2c0-2 0-2 2-2Z"/><path style="opacity:0.247" fill="#3687ff" d="m160 286-2 2c0-2 0-2 2-2Z"/><path style="opacity:0.184" fill="#3787ff" d="m72 288-2 2 2-2ZM156 292l-2 2c0-2 0-2 2-2ZM152 298l-2 2c0-2 0-2 2-2Z"/><path style="opacity:0.247" fill="#3687ff" d="m146 308-2 2c0-2 0-2 2-2Z"/><path style="opacity:1" fill="#2780ff" d="m68 312-2 2c0-2 0-2 2-2Z"/><path style="opacity:0.247" fill="#3687ff" d="m128 344-2 2c0-2 0-2 2-2ZM124 354l-2 2c0-2 0-2 2-2Z"/><path style="opacity:0.247" fill="#3686ff" d="m112 392-2 2c0-2 0-2 2-2Z"/><path style="opacity:0.247" fill="#3687ff" d="m110 400-2 2c0-2 0-2 2-2ZM108 410l-2 2c0-2 0-2 2-2Z"/><path style="opacity:0.184" fill="#3787ff" d="M70 422c1 0 2 0 2 2l-2-2Z"/><path style="opacity:0.247" fill="#3687ff" d="m104 436-2 2c0-2 0-2 2-2ZM74 438c1 0 2 0 2 2l-2-2Z"/><path style="opacity:0.059" fill="#1f2278" d="M300 638c1 0 2 0 2 2l-2-2ZM404 638l-2 2c0-2 0-2 2-2Z"/></svg>